<?xml version="1.0" encoding="UTF-8" standalone="no"?>
<!DOCTYPE svg PUBLIC "-//W3C//DTD SVG 1.1//EN" "http://www.w3.org/Graphics/SVG/1.1/DTD/svg11.dtd">
<svg xmlns:xl="http://www.w3.org/1999/xlink" xmlns="http://www.w3.org/2000/svg" xmlns:dc="http://purl.org/dc/elements/1.1/" version="1.1" viewBox="224 608 64 64" width="64" height="64">
  <defs/>
  <g id="Canvas_1" stroke-opacity="1" stroke-dasharray="none" fill="none" fill-opacity="1" stroke="none">
    <title>Canvas 1</title>
    <g id="Canvas_1_Layer_1">
      <title>Layer 1</title>
      <g id="Group_485">
        <g id="Graphic_477">
          <path d="M 232 608 L 280 608 C 284.41828 608 288 611.5817 288 616 L 288 664 C 288 668.4183 284.41828 672 280 672 L 232 672 C 227.58172 672 224 668.4183 224 664 L 224 616 C 224 611.5817 227.58172 608 232 608 Z" fill="#155196"/>
        </g>
        <g id="Group_478">
          <title>layer1</title>
          <g id="Graphic_480">
            <title>path10358</title>
            <path d="M 239.63247 630.10205 C 239.63247 625.42116 239.21055 624.91535 236.72252 624.7041 L 235.66866 624.6202 C 235.41575 624.4512 235.49964 623.6925 235.75254 623.5657 C 238.19894 623.6502 239.63247 623.6925 241.40342 623.6925 C 243.09048 623.6925 244.524 623.6502 246.21045 623.5657 C 246.46398 623.6925 246.54786 624.4512 246.2956 624.6202 L 245.66302 624.7041 C 243.17436 625.0415 243.09048 625.6318 243.09048 630.10205 L 243.09048 645.7467 C 243.09048 649.0779 242.92146 651.98786 242.1205 653.9272 C 240.7286 657.3013 237.73476 660 233.8132 660 C 233.30677 660 232 659.95774 232 659.1145 C 232 658.39744 232.63257 657.17456 233.51804 657.17456 C 234.02385 657.17456 234.52965 657.2591 235.07834 657.4275 C 235.66866 657.5965 236.25897 657.7226 236.8493 657.7226 C 237.73476 657.7226 238.24056 657.2168 238.53635 656.6265 C 239.5057 654.6443 239.63247 648.3192 239.63247 646.0418 Z" fill="white"/>
          </g>
          <g id="Graphic_479">
            <title>path10362</title>
            <path d="M 276.23554 644.355 C 276.23554 645.62015 276.23554 650.63846 276.36168 651.7346 C 276.2778 651.9875 276.02426 652.19876 275.5607 652.19876 C 275.0549 651.4817 273.83202 650.0059 270.16337 645.8308 L 260.37965 634.69806 C 259.24128 633.3913 256.37358 629.9333 255.4881 629.00556 L 255.4036 629.00556 C 255.2352 629.51136 255.19295 630.482 255.19295 631.7465 L 255.19295 640.93925 C 255.19295 642.9215 255.27746 648.4033 255.95166 649.6685 C 256.24744 650.132 257.0484 650.38556 258.1029 650.4694 L 259.40967 650.5962 C 259.6632 650.9336 259.6203 651.4394 259.3258 651.6507 C 257.42808 651.5662 255.95166 651.5239 254.392 651.5239 C 252.6204 651.5239 251.48204 651.5662 250.00625 651.6507 C 249.7111 651.4394 249.66884 650.8491 249.92174 650.5962 L 251.06012 650.4694 C 252.0301 650.38556 252.70492 650.0904 252.91557 649.6262 C 253.5059 648.1082 253.46426 642.9637 253.46426 640.93925 L 253.46426 628.75265 C 253.46426 627.572 253.422 626.6859 252.53653 625.7166 C 251.94622 625.12625 250.93398 624.8311 249.92174 624.7043 L 249.20466 624.6198 C 248.95176 624.3669 248.95176 623.73435 249.28917 623.56595 C 251.06012 623.6921 253.29524 623.6921 254.05458 623.6921 C 254.72877 623.6921 255.44585 623.6498 255.99454 623.56595 C 256.83776 625.7166 261.85544 631.2829 263.2051 632.8426 L 267.29567 637.4396 C 270.16337 640.7286 272.2711 643.0476 274.25395 645.0721 L 274.33783 645.0721 C 274.50622 644.8608 274.50622 644.1866 274.50622 643.30115 L 274.50622 634.2768 C 274.50622 632.2952 274.46396 626.8127 273.663 625.5482 C 273.4101 625.1685 272.73527 624.915 271.0482 624.7043 L 270.33176 624.6198 C 270.0366 624.3669 270.07886 623.6921 270.41627 623.56595 C 272.3556 623.6498 273.78977 623.6921 275.39232 623.6921 C 277.2049 623.6921 278.30164 623.6498 279.7358 623.56595 C 280.0726 623.7766 280.0726 624.3669 279.8197 624.6198 L 279.22937 624.7043 C 277.88035 624.915 277.0365 625.2524 276.8681 625.5898 C 276.15103 627.10784 276.23554 632.3368 276.23554 634.2768 Z" fill="white"/>
          </g>
        </g>
      </g>
    </g>
  </g>
</svg>
