<?xml version="1.0" encoding="UTF-8" standalone="no"?>
<!DOCTYPE svg PUBLIC "-//W3C//DTD SVG 1.1//EN" "http://www.w3.org/Graphics/SVG/1.1/DTD/svg11.dtd">
<svg xmlns:xl="http://www.w3.org/1999/xlink" xmlns="http://www.w3.org/2000/svg" xmlns:dc="http://purl.org/dc/elements/1.1/" version="1.1" viewBox="224 688 64 64" width="64" height="64">
  <defs/>
  <g id="Canvas_1" stroke-opacity="1" stroke-dasharray="none" fill="none" fill-opacity="1" stroke="none">
    <title>Canvas 1</title>
    <g id="Canvas_1_Layer_1">
      <title>Layer 1</title>
      <g id="Group_486">
        <g id="Graphic_484">
          <path d="M 232 688 L 280 688 C 284.41828 688 288 691.5817 288 696 L 288 744 C 288 748.4183 284.41828 752 280 752 L 232 752 C 227.58172 752 224 748.4183 224 744 L 224 696 C 224 691.5817 227.58172 688 232 688 Z" fill="#8ca5b1"/>
        </g>
        <g id="Group_481">
          <title>layer1</title>
          <g id="Graphic_483">
            <title>path10358</title>
            <path d="M 239.63247 710.10205 C 239.63247 705.42116 239.21055 704.91535 236.72252 704.7041 L 235.66866 704.6202 C 235.41575 704.4512 235.49964 703.6925 235.75254 703.5657 C 238.19894 703.6502 239.63247 703.6925 241.40342 703.6925 C 243.09048 703.6925 244.524 703.6502 246.21045 703.5657 C 246.46398 703.6925 246.54786 704.4512 246.2956 704.6202 L 245.66302 704.7041 C 243.17436 705.0415 243.09048 705.6318 243.09048 710.10205 L 243.09048 725.7467 C 243.09048 729.0779 242.92146 731.9879 242.1205 733.9272 C 240.7286 737.3013 237.73476 740 233.8132 740 C 233.30677 740 232 739.9577 232 739.1145 C 232 738.39744 232.63257 737.1746 233.51804 737.1746 C 234.02385 737.1746 234.52965 737.2591 235.07834 737.4275 C 235.66866 737.5965 236.25897 737.7226 236.8493 737.7226 C 237.73476 737.7226 238.24056 737.2168 238.53635 736.6265 C 239.5057 734.6443 239.63247 728.3192 239.63247 726.0418 Z" fill="white"/>
          </g>
          <g id="Graphic_482">
            <title>path10362</title>
            <path d="M 276.23554 724.355 C 276.23554 725.62015 276.23554 730.6385 276.36168 731.7346 C 276.2778 731.9875 276.02426 732.1988 275.5607 732.1988 C 275.0549 731.4817 273.83202 730.0059 270.16337 725.8308 L 260.37965 714.6981 C 259.24128 713.3913 256.37358 709.9333 255.4881 709.00556 L 255.4036 709.00556 C 255.2352 709.5114 255.19295 710.482 255.19295 711.7465 L 255.19295 720.93925 C 255.19295 722.9215 255.27746 728.4033 255.95166 729.6685 C 256.24744 730.132 257.0484 730.3856 258.1029 730.4694 L 259.40967 730.5962 C 259.6632 730.9336 259.6203 731.4394 259.3258 731.6507 C 257.42808 731.5662 255.95166 731.5239 254.392 731.5239 C 252.6204 731.5239 251.48204 731.5662 250.00625 731.6507 C 249.7111 731.4394 249.66884 730.8491 249.92174 730.5962 L 251.06012 730.4694 C 252.0301 730.3856 252.70492 730.0904 252.91557 729.6262 C 253.5059 728.1082 253.46426 722.9637 253.46426 720.93925 L 253.46426 708.75265 C 253.46426 707.572 253.422 706.6859 252.53653 705.7166 C 251.94622 705.12625 250.93398 704.8311 249.92174 704.7043 L 249.20466 704.6198 C 248.95176 704.3669 248.95176 703.73435 249.28917 703.56595 C 251.06012 703.6921 253.29524 703.6921 254.05458 703.6921 C 254.72877 703.6921 255.44585 703.6498 255.99454 703.56595 C 256.83776 705.7166 261.85544 711.2829 263.2051 712.8426 L 267.29567 717.4396 C 270.16337 720.7286 272.2711 723.0476 274.25395 725.0721 L 274.33783 725.0721 C 274.50622 724.8608 274.50622 724.1866 274.50622 723.30115 L 274.50622 714.2768 C 274.50622 712.2952 274.46396 706.8127 273.663 705.5482 C 273.4101 705.1685 272.73527 704.915 271.0482 704.7043 L 270.33176 704.6198 C 270.0366 704.3669 270.07886 703.6921 270.41627 703.56595 C 272.3556 703.6498 273.78977 703.6921 275.39232 703.6921 C 277.2049 703.6921 278.30164 703.6498 279.7358 703.56595 C 280.0726 703.7766 280.0726 704.3669 279.8197 704.6198 L 279.22937 704.7043 C 277.88035 704.915 277.0365 705.2524 276.8681 705.5898 C 276.15103 707.10784 276.23554 712.3368 276.23554 714.2768 Z" fill="white"/>
          </g>
        </g>
      </g>
    </g>
  </g>
</svg>
