<?xml version="1.0" encoding="UTF-8" standalone="no"?>
<!DOCTYPE svg PUBLIC "-//W3C//DTD SVG 1.1//EN" "http://www.w3.org/Graphics/SVG/1.1/DTD/svg11.dtd">
<svg xmlns="http://www.w3.org/2000/svg" xmlns:xl="http://www.w3.org/1999/xlink" xmlns:dc="http://purl.org/dc/elements/1.1/" version="1.1" viewBox="704 288 64 64" width="64" height="64">
  <defs/>
  <g id="Canvas_1" stroke-dasharray="none" fill-opacity="1" stroke-opacity="1" stroke="none" fill="none">
    <title>Canvas 1</title>
    <g id="Canvas_1_Layer_1">
      <title>Layer 1</title>
      <g id="Group_294">
        <g id="Graphic_292">
          <circle cx="736" cy="320" r="32.0000511328607" fill="white"/>
        </g>
        <g id="Group_143">
          <title>korben-unread</title>
          <g id="Graphic_138"/>
          <g id="Group_112">
            <title>layer1</title>
            <g id="Graphic_113">
              <title>path1</title>
              <path d="M 739.1214 351.6827 C 746.39015 351.01353 753.3862 347.7141 758.6096 342.49175 C 768.3642 332.73907 770.7716 318.0706 764.6419 305.73607 C 762.1541 300.72984 758.3856 296.4659 753.6636 293.31414 C 744.3439 287.0937 732.2138 286.27187 722.1361 291.17808 C 718.79826 292.80304 716.3426 294.5206 713.7239 297.06174 C 705.7594 304.79047 702.4223 315.72415 704.7029 326.6187 C 705.6915 331.3416 707.9831 336.098 711.1767 340.0557 C 712.3113 341.46184 714.59056 343.71996 716.0283 344.8624 C 722.583 350.0706 730.6744 352.46033 739.1214 351.6827 Z M 720.2165 345.1508 C 716.7576 343.0058 713.4374 339.75618 711.0881 336.21656 C 706.444 329.21948 705.0184 320.4388 707.1975 312.25346 C 710.0195 301.65304 718.6996 293.34126 729.49185 290.90506 C 732.7901 290.16053 736.9708 289.99368 740.1684 290.47897 C 750.1726 291.99727 758.4447 298.02106 762.7975 306.9576 C 765.7286 312.97545 766.5442 319.7137 765.1285 326.2168 C 764.2368 330.31283 762.44985 334.23836 759.95815 337.57496 C 758.8537 339.05392 757.0765 341.04457 756.8605 341.04457 C 756.7712 341.04457 756.5127 340.79953 756.2861 340.50003 C 756.0594 340.20053 755.6534 339.79583 755.3837 339.6007 C 754.7858 339.16798 754.5887 338.80264 754.2296 337.46065 C 754.0766 336.889 753.7716 336.12656 753.55175 335.76632 C 753.013 334.88347 752.9714 334.63853 753.1453 333.37218 C 753.2946 332.2846 753.2944 332.283 752.9779 331.63608 C 752.748 331.16604 752.4318 330.7963 751.8245 330.2871 L 750.9878 329.58562 L 749.8535 329.66027 C 748.4243 329.7543 748.36115 329.59568 749.5435 328.88127 C 750.9578 328.02675 751.4823 326.92944 752.0296 323.68044 C 752.1885 322.73705 752.3692 321.7936 752.4312 321.58388 C 752.66114 320.8063 751.992 319.1129 751.3213 318.775 L 750.9568 318.5914 L 751.0141 316.96266 C 751.05065 315.9238 750.9852 314.091 750.8333 311.90197 C 750.7023 310.0144 750.5623 307.89413 750.5221 307.1903 C 750.3836 304.76116 749.7902 302.83267 748.6576 301.13055 C 747.0104 298.6549 744.2583 296.97534 740.56685 296.1929 C 738.3436 295.72164 733.3969 295.68487 731.14205 296.12282 C 727.8351 296.76512 724.7796 298.6588 722.3605 301.5653 C 721.3165 302.81965 720.6715 303.908 720.0133 305.52563 C 719.3458 307.16613 719.2487 308.2772 719.4109 312.41435 C 719.4759 314.07185 719.49636 315.5769 719.4564 315.7589 C 719.3538 316.22594 719.0307 316.4075 718.0172 316.5676 C 717.2278 316.6923 717.0875 316.755 716.70195 317.15484 C 715.5514 318.34812 715.49365 321.51095 716.56795 324.48914 C 717.0147 325.72776 717.4024 326.1429 718.675 326.7457 C 719.2669 327.02607 719.7571 327.2954 719.7643 327.34426 C 719.7716 327.3931 719.79066 327.8257 719.8067 328.3056 C 719.8307 329.02175 719.9455 329.48044 720.4473 330.865 C 720.7836 331.7928 721.1545 332.7409 721.2715 332.9719 C 721.8517 334.11702 724.3168 337.02828 724.70784 337.03026 C 724.7786 337.03062 725.0707 337.2097 725.35686 337.4282 C 725.643 337.64673 726.0694 337.9058 726.3043 338.00397 C 727.0412 338.3119 727.0274 338.3335 724.78865 340.3759 C 723.4552 341.59233 722.4714 342.7601 721.4565 344.3311 C 721.0742 344.923 720.73035 345.40636 720.6925 345.40528 C 720.6546 345.4044 720.4404 345.2897 720.2165 345.1508 Z M 721.0712 326.8985 C 719.6841 326.66677 718.019 325.7633 717.4812 324.95057 C 717.1107 324.3908 716.40105 321.912 716.3 320.82504 C 716.2103 319.85922 716.43754 318.53458 716.7803 318.026 C 717.3627 317.16175 718.6045 316.8989 722.1361 316.8923 C 724.048 316.8888 724.30885 316.9134 725.135 317.17597 C 726.2169 317.5198 726.781 317.92034 726.96394 318.47466 C 727.03825 318.6998 727.20685 318.9417 727.3386 319.01223 C 728.475 319.6204 729.9061 319.1053 730.44125 317.89554 C 730.68205 317.35118 731.2817 316.87074 731.9761 316.66575 C 733.171 316.31303 735.884 315.89786 737.66714 315.79484 C 738.339 315.756 739.4886 315.64953 740.2217 315.5582 C 741.8368 315.35697 743.4713 315.3441 744.0843 315.52776 C 744.5018 315.65285 744.8227 315.9426 745.6515 316.94294 C 745.7878 317.1075 746.0496 317.2738 746.2332 317.31255 C 746.4168 317.3513 746.7895 317.4392 747.0614 317.50788 L 747.55585 317.63277 L 747.55585 318.49428 C 747.55585 319.50756 747.3941 319.8291 746.75575 320.0845 C 746.2834 320.2735 746.2534 320.35977 745.8213 322.77244 C 745.6581 323.68356 745.302 324.0407 743.7954 324.8045 C 742.4303 325.49654 741.42 325.74633 738.78506 326.0433 C 736.5016 326.30063 734.5053 326.2346 733.5634 325.8706 C 732.8064 325.57807 731.90546 324.74834 731.4097 323.88714 C 731.24315 323.5979 730.992 323.2042 730.85155 323.01224 C 730.7111 322.8203 730.43614 322.343 730.2405 321.95164 C 729.7892 321.0488 729.3055 320.6273 728.7205 320.6273 C 728.07005 320.6273 727.8216 320.9652 727.5551 322.21236 C 727.2388 323.69252 726.565 325.0874 725.8424 325.75822 C 724.7711 326.7526 722.8895 327.2023 721.0712 326.89853 Z" fill="black"/>
            </g>
          </g>
        </g>
      </g>
    </g>
  </g>
</svg>
