<?xml version="1.0" encoding="UTF-8" standalone="no"?>
<!DOCTYPE svg PUBLIC "-//W3C//DTD SVG 1.1//EN" "http://www.w3.org/Graphics/SVG/1.1/DTD/svg11.dtd">
<svg xmlns="http://www.w3.org/2000/svg" xmlns:xl="http://www.w3.org/1999/xlink" xmlns:dc="http://purl.org/dc/elements/1.1/" version="1.1" viewBox="784 448 64 64" width="64" height="64">
  <defs/>
  <g id="Canvas_1" stroke-dasharray="none" fill-opacity="1" stroke-opacity="1" stroke="none" fill="none">
    <title>Canvas 1</title>
    <g id="Canvas_1_Layer_1">
      <title>Layer 1</title>
      <g id="Group_472">
        <g id="Graphic_443">
          <path d="M 792 448 L 840 448 C 844.4183 448 848 451.5817 848 456 L 848 504 C 848 508.4183 844.4183 512 840 512 L 792 512 C 787.5817 512 784 508.4183 784 504 L 784 456 C 784 451.5817 787.5817 448 792 448 Z" fill="black"/>
        </g>
        <g id="Graphic_457">
          <path d="M 792 495.5085 L 792.1891 495.69764 C 792.9694 494.83097 794.0367 494.21346 795.5742 494.22637 C 798.4476 494.25 800.9402 495.6513 803.71395 496 L 813.1767 489.9255 L 812.89065 489.6395 C 811.319 490.7984 809.3767 490.8168 809.2572 490.8496 C 809.236 490.8506 809.2171 490.8517 809.2018 490.852 C 805.6008 490.96965 803.2701 489.59934 800.046 489.5725 C 795.9612 489.539 792.4166 492.2005 792 495.5085 M 834.4307 488.0515 C 834.4066 485.3722 834.4297 472.6587 834.4297 472.6587 C 834.446 471.6155 834.5318 470.3211 834.8337 469.46943 C 835.3545 468.0016 837.4362 466.2774 838.6991 465.4201 C 838.6991 465.4201 838.6977 465.41655 838.6963 465.412 L 838.3923 465.108 C 837.9262 465.46366 836.7704 466.4864 835.3911 465.7639 C 835.3911 465.7639 828.8923 461.33453 828.7007 461.3332 C 828.7007 461.3332 822.2729 465.33025 822.1176 465.32054 C 822.1176 465.32054 816.621 461.3182 816.4876 461.31643 C 816.4876 461.31643 810.3879 464.8168 810.3046 464.7604 C 809.9259 463.15594 808.9507 462.4131 808.7573 462.2469 C 808.261 461.81984 807.5198 461.46695 806.7067 461.3865 C 804.6648 461.18556 803.4013 461.8066 801.9956 462.2716 C 801.9956 462.2716 799.5349 463.1703 798.9261 463.279 C 798.4106 463.3846 798.0672 463.3946 797.745 463.13343 C 797.2977 462.7868 797.4875 462.232 797.7046 461.8554 C 797.8049 461.6819 797.9383 461.51263 798.0512 461.36454 C 798.1397 461.24934 798.8165 460.4429 798.9639 460.2607 L 798.7494 460.0461 C 797.9959 460.71073 796.4494 461.94343 795.7426 462.71985 L 795.7387 462.71775 C 795.7387 462.71775 794.1489 464.22147 793.8957 465.798 C 793.7592 466.64627 793.9724 467.9786 795.1479 468.63 C 796.4298 469.34054 798.33655 468.82433 798.33655 468.82433 C 798.33655 468.82433 800.577 468.14723 801.6715 467.8431 C 802.1421 467.71246 804.1052 467.01307 804.1052 468.82235 L 804.1272 481.80563 C 804.1422 483.5445 804.1753 485.45884 803.8635 486.73105 C 803.5949 488.2958 802.9317 488.6403 802.7979 488.83076 L 803.0564 489.08964 C 803.7586 488.6821 808.1535 486.0343 808.1535 486.0343 C 809.1215 485.45884 809.6374 484.7065 809.8119 484.38183 C 810.3971 483.2915 810.3926 481.74395 810.3783 480.17325 L 810.3696 466.108 C 810.3769 465.18945 811.0921 463.70096 813.7621 465.86655 L 816.3105 467.6615 C 816.3912 468.7747 816.3426 488.6477 816.3426 488.6477 C 816.3579 490.38623 816.5117 492.3007 816.2001 493.5728 C 815.896 495.1361 815.2711 495.48644 815.154 495.6788 L 815.417 495.94174 C 816.0952 495.54007 820.3086 492.8765 820.3086 492.8765 C 821.2763 492.301 821.7925 491.54865 821.9669 491.224 C 822.5518 490.13365 822.5473 488.586 822.5334 487.0154 C 822.5208 485.60284 822.5296 467.00104 822.5296 467.00104 C 822.3856 465.2625 823.5992 464.3687 825.2085 465.4074 C 826.2573 465.96233 831.4056 469.17314 831.4056 469.17314 C 828.7642 470.58594 828.3951 472.77625 828.3434 474.8816 C 828.3183 475.92096 828.34 489.3854 828.34 489.3854 C 828.3344 490.76164 828.2003 492.21206 828.6779 493.3184 C 829.1931 494.3484 832.1393 495.9682 832.1393 495.9682 C 832.2946 495.96965 836.3465 493.65 838.0003 492.6995 L 840 491.6227 L 839.713 491.33534 C 838.1085 492.3232 837.429 492.25455 836.8936 492.1709 L 836.8925 492.1717 C 834.5883 491.5948 834.4392 489.0105 834.4307 488.0515" fill="white"/>
        </g>
      </g>
    </g>
  </g>
</svg>
