<?xml version="1.0" encoding="UTF-8" standalone="no"?>
<!DOCTYPE svg PUBLIC "-//W3C//DTD SVG 1.1//EN" "http://www.w3.org/Graphics/SVG/1.1/DTD/svg11.dtd">
<svg xmlns="http://www.w3.org/2000/svg" xmlns:xl="http://www.w3.org/1999/xlink" xmlns:dc="http://purl.org/dc/elements/1.1/" version="1.1" viewBox="784 528 64 64" width="64" height="64">
  <defs/>
  <g id="Canvas_1" stroke-dasharray="none" fill-opacity="1" stroke-opacity="1" stroke="none" fill="none">
    <title>Canvas 1</title>
    <g id="Canvas_1_Layer_1">
      <title>Layer 1</title>
      <g id="Group_473">
        <g id="Graphic_471">
          <path d="M 792 528 L 840 528 C 844.4183 528 848 531.5817 848 536 L 848 584 C 848 588.4183 844.4183 592 840 592 L 792 592 C 787.5817 592 784 588.4183 784 584 L 784 536 C 784 531.5817 787.5817 528 792 528 Z" fill="#8ca3b0"/>
        </g>
        <g id="Graphic_470">
          <path d="M 792 575.5085 L 792.1891 575.69764 C 792.9694 574.831 794.0367 574.21346 795.5742 574.2264 C 798.4476 574.25 800.9402 575.6513 803.71395 576 L 813.1767 569.9255 L 812.89065 569.6395 C 811.319 570.7984 809.3767 570.8168 809.2572 570.8496 C 809.236 570.8506 809.2171 570.8517 809.2018 570.852 C 805.6008 570.96965 803.2701 569.59934 800.046 569.5725 C 795.9612 569.539 792.4166 572.2005 792 575.5085 M 834.4307 568.0515 C 834.4066 565.3722 834.4297 552.6587 834.4297 552.6587 C 834.446 551.6155 834.5318 550.3211 834.8337 549.4694 C 835.3545 548.0016 837.4362 546.2774 838.6991 545.4201 C 838.6991 545.4201 838.6977 545.41655 838.6963 545.412 L 838.3923 545.108 C 837.9262 545.46366 836.7704 546.4864 835.3911 545.7639 C 835.3911 545.7639 828.8923 541.3345 828.7007 541.3332 C 828.7007 541.3332 822.2729 545.33025 822.1176 545.32054 C 822.1176 545.32054 816.621 541.3182 816.4876 541.3164 C 816.4876 541.3164 810.3879 544.8168 810.3046 544.7604 C 809.9259 543.15594 808.9507 542.4131 808.7573 542.2469 C 808.261 541.81984 807.5198 541.46695 806.7067 541.3865 C 804.6648 541.18556 803.4013 541.8066 801.9956 542.2716 C 801.9956 542.2716 799.5349 543.1703 798.9261 543.279 C 798.4106 543.3846 798.0672 543.3946 797.745 543.1334 C 797.2977 542.7868 797.4875 542.232 797.7046 541.8554 C 797.8049 541.6819 797.9383 541.5126 798.0512 541.36454 C 798.1397 541.24934 798.8165 540.4429 798.9639 540.2607 L 798.7494 540.0461 C 797.9959 540.7107 796.4494 541.94343 795.7426 542.71985 L 795.7387 542.71775 C 795.7387 542.71775 794.1489 544.2215 793.8957 545.798 C 793.7592 546.6463 793.9724 547.9786 795.1479 548.63 C 796.4298 549.34054 798.33655 548.8243 798.33655 548.8243 C 798.33655 548.8243 800.577 548.1472 801.6715 547.8431 C 802.1421 547.71246 804.1052 547.0131 804.1052 548.82235 L 804.1272 561.80563 C 804.1422 563.5445 804.1753 565.45884 803.8635 566.73105 C 803.5949 568.2958 802.9317 568.6403 802.7979 568.83076 L 803.0564 569.08964 C 803.7586 568.6821 808.1535 566.0343 808.1535 566.0343 C 809.1215 565.45884 809.6374 564.7065 809.8119 564.38183 C 810.3971 563.2915 810.3926 561.74395 810.3783 560.17325 L 810.3696 546.108 C 810.3769 545.18945 811.0921 543.70096 813.7621 545.86655 L 816.3105 547.6615 C 816.3912 548.7747 816.3426 568.6477 816.3426 568.6477 C 816.3579 570.38623 816.5117 572.3007 816.2001 573.5728 C 815.896 575.1361 815.2711 575.48644 815.154 575.6788 L 815.417 575.94174 C 816.0952 575.5401 820.3086 572.8765 820.3086 572.8765 C 821.2763 572.301 821.7925 571.54865 821.9669 571.224 C 822.5518 570.13365 822.5473 568.586 822.5334 567.0154 C 822.5208 565.60284 822.5296 547.00104 822.5296 547.00104 C 822.3856 545.2625 823.5992 544.3687 825.2085 545.4074 C 826.2573 545.9623 831.4056 549.17314 831.4056 549.17314 C 828.7642 550.58594 828.3951 552.77625 828.3434 554.8816 C 828.3183 555.92096 828.34 569.3854 828.34 569.3854 C 828.3344 570.76164 828.2003 572.21206 828.6779 573.3184 C 829.1931 574.3484 832.1393 575.9682 832.1393 575.9682 C 832.2946 575.96965 836.3465 573.65 838.0003 572.6995 L 840 571.6227 L 839.713 571.33534 C 838.1085 572.3232 837.429 572.25455 836.8936 572.1709 L 836.8925 572.1717 C 834.5883 571.5948 834.4392 569.0105 834.4307 568.0515" fill="white"/>
        </g>
      </g>
    </g>
  </g>
</svg>
